# xmcd CD database file
#
# Track frame offsets:
#	150
#	14332
#	28802
#	45852
#	57057
#	74478
#	89476
#	103056
#	117549
#	132299
#	146676
#	161722
#	175445
#	187741
#	203494
#	227716
#	251449
#	265599
#	278689
#	291520
#	304300
#	320405
#
# Disc length: 4458 seconds
#
# Revision: 0
# Processed by: cddbd v1.5.2PL0 Copyright (c) Steve Scherf et al.
# Submitted via: CDex 1.70beta2
#
DISCID=40116816
DTITLE=Various Artist - Jazz Roads CD174 - Swing - Lester Young Vol.2 (1939-41)
DYEAR=2006
DGENRE=Jazz
TTITLE0=Count Basie's Kansas City Seven - Dickie's Dream
TTITLE1=Count Basie's Kansas City Seven - Lester Leaps In
TTITLE2=Kansas City Six - Pagin' The Devil
TTITLE3=Kansas City Six - Way Down Yonder In New Orleans
TTITLE4=Kansas City Six - Good Morning Blues
TTITLE5=Benny Goodman/Count Basie All Star Octet - Blues (Ad Lib Blues)
TTITLE6=Benny Goodman/Count Basie All Star Octet - I Never Knew
TTITLE7=Benny Goodman/Count Basie All Star Octet - Charlie's Dream
TTITLE8=Benny Goodman/Count Basie All Star Octet - Lester's Dream
TTITLE9=Benny Goodman/Count Basie All Star Octet - Wholly Cats
TTITLE10=Una Mae Carlisle - Blitzkrieg Baby
TTITLE11=Una Mae Carlisle - Beautiful Eyes
TTITLE12=Una Mae Carlisle - There'll  Be Some Changes Made
TTITLE13=Una Mae Carlisle - It's Sad But True
TTITLE14=Lester Young And His Band - Tickle Toe
TTITLE15=Lester Young And His Band - Taxi War Dance
TTITLE16=Sammy Price And His Texas Blusicians - The Goon Drag (Gone Wid De Goon)
TTITLE17=Sammy Price And His Texas Blusicians - Thing's About Coming My Way
TTITLE18=Sammy Price And His Texas Blusicians - Lead Me Daddy, Straight To The Bar
TTITLE19=Sammy Price And His Texas Blusicians - Just Jivin' Around
TTITLE20=Lester And Lee Young's Band - Untitled Blues
TTITLE21=Unknown Band - Just A Little Bit South
EXTD=YEAR: 2006
EXTT0=
EXTT1=
EXTT2=
EXTT3=
EXTT4=
EXTT5=
EXTT6=
EXTT7=
EXTT8=
EXTT9=
EXTT10=
EXTT11=
EXTT12=
EXTT13=
EXTT14=
EXTT15=
EXTT16=
EXTT17=
EXTT18=
EXTT19=
EXTT20=
EXTT21=
PLAYORDER=
